<svg width="174" height="39" viewBox="0 0 174 39" fill="none" xmlns="http://www.w3.org/2000/svg">
<path d="M16.043 26.8064C13.8667 25.998 11.6281 25.8737 9.57614 26.4333C8.14596 26.8064 6.77796 27.5526 5.53432 28.4853L4.66376 29.2315L4.41504 29.4802L4.97467 29.9777C5.03685 29.9777 5.03686 30.0399 5.09904 30.102C5.22341 30.2264 5.34778 30.2886 5.53432 30.4129L5.9074 30.6617L6.28049 30.3508C6.34268 30.2886 6.46704 30.1642 6.5914 30.102C7.71068 29.1693 8.95431 28.5475 10.2601 28.2366C11.939 27.8013 13.7423 27.8635 15.5456 28.5475C17.0379 29.1071 20.0849 29.7911 23.7536 28.2366L23.878 28.1744L24.0645 27.9879C24.0645 27.9257 24.1267 27.9257 24.1889 27.8635C24.4998 27.4904 24.8107 27.1173 25.0594 26.682L26.303 24.7544L24.3132 25.8737C21.3907 27.4904 18.7169 27.8013 16.043 26.8064Z" fill="#55B02E"/>
<path d="M7.52364 20.0906C9.20255 19.6553 11.0058 19.7175 12.8091 20.4015C14.7989 21.1477 19.8978 22.2048 25.6186 17.0437L26.5513 16.111L26.6135 16.0488L26.8622 15.8001L26.7378 15.4891C26.6756 15.2404 26.5513 14.9295 26.4269 14.6186L26.116 13.748L25.4942 14.3699C25.432 14.4942 25.3076 14.5564 25.1833 14.6808C22.4473 17.479 18.2189 20.3393 13.3687 18.5982C11.1924 17.7899 8.95382 17.6655 6.90182 18.2251C4.91201 18.7848 3.17091 19.8419 1.55418 21.3342V21.2721L0.621456 22.267C0.621456 22.3291 0.559286 22.3292 0.497104 22.3913L0.310547 22.5779L0.372732 22.8266C0.434914 23.1375 0.559274 23.4484 0.621456 23.7593L0.994551 24.7542L1.61637 23.9459C1.67855 23.8215 1.80291 23.7593 1.86509 23.635C3.17091 22.4535 4.97419 20.7746 7.52364 20.0906Z" fill="#55B02E"/>
<path d="M1.49238 18.9715C2.92256 17.4792 4.53928 16.5464 6.28037 16.049C7.95928 15.6137 9.76255 15.6759 11.5658 16.3599C17.1622 18.4119 22.0124 15.0541 24.1266 13.2508L24.9349 12.4424L25.2458 12.1937L24.9971 11.8206C24.8106 11.6341 24.6862 11.3854 24.4997 11.1366L24.1266 10.6392L23.6913 11.0744C23.6291 11.1366 23.5047 11.261 23.4426 11.3232C20.8309 13.8104 16.7891 16.3599 12.1876 14.6188C10.0113 13.8104 7.77273 13.6861 5.72074 14.2457C4.41492 14.6188 3.17128 15.2406 1.92764 16.049L0.621818 17.1061C0.497455 17.2304 0.435273 17.2926 0.310909 17.417L0.186557 17.5413V17.7279C0.124375 18.1632 0.124367 18.5984 0.0621856 18.9715L0 20.5261L1.0571 19.4068C1.18146 19.2824 1.30583 19.0959 1.49238 18.9715Z" fill="#55B02E"/>
<path d="M17.8466 31.0349L17.7222 31.408L17.8466 31.0349C17.66 30.9727 17.5357 30.9105 17.3491 30.8483C15.1728 30.04 12.9342 29.9156 10.8822 30.4753C10.4469 30.5996 10.0117 30.724 9.57639 30.9105L8.08401 31.5945L7.71094 31.7811L8.95457 32.2163C9.32766 32.3407 9.70075 32.4651 10.0738 32.5894L10.2604 32.6516L10.4469 32.5894C10.6335 32.5273 10.82 32.4029 11.0066 32.4029C11.1309 32.4029 11.2553 32.3407 11.3797 32.2785C12.872 31.9054 14.4887 31.9054 16.2298 32.4651C16.4164 32.5272 16.5408 32.5894 16.7273 32.6516L17.0382 32.776L17.2247 32.7138C17.66 32.5894 18.1575 32.4651 18.5306 32.2785L20.2717 31.6567L18.4684 31.2214C18.2818 31.1592 18.0331 31.0971 17.8466 31.0349Z" fill="#55B02E"/>
<path d="M27.3597 18.1631L26.427 19.0958C26.3027 19.2202 26.1783 19.3445 26.0539 19.4689C23.5045 21.894 19.4005 24.5056 14.799 22.7645C12.6227 21.9562 10.3841 21.8318 8.33213 22.3915C6.40449 22.9511 4.66338 23.946 3.10884 25.4384L2.30048 26.3089L2.05176 26.6198L2.30048 26.9929C2.48703 27.2416 2.6114 27.4282 2.73576 27.6769L3.10884 28.2365L3.54412 27.6769C3.6063 27.6147 3.73066 27.4904 3.79284 27.4282C5.2852 25.8114 6.90193 24.8165 8.76739 24.3191C10.4463 23.8838 12.2496 23.946 14.0528 24.63C15.6074 25.1896 17.2241 25.3762 18.8408 25.1896C21.7012 24.8787 24.5616 23.262 26.6758 21.4587C26.8001 21.3344 26.9245 21.2722 27.0488 21.1478L27.2354 20.9613V20.7747C27.2354 20.4016 27.2976 19.9664 27.2976 19.5933L27.3597 18.1631Z" fill="#55B02E"/>
<path d="M3.73045 12.4423L3.54391 12.0692L3.73045 12.4423C4.10354 12.2557 4.53883 12.1313 4.91192 12.007C6.59083 11.5717 8.3941 11.6339 10.1974 12.3179C11.3788 12.7532 12.5603 12.9397 13.8661 12.9397C16.4777 12.9397 19.0894 12.007 21.5145 10.2037L22.4472 9.45752L22.7581 9.20879L22.1985 8.77351C22.0119 8.58697 21.7632 8.40043 21.5145 8.27607L21.1414 8.02734L20.8305 8.27607C20.7061 8.33825 20.6439 8.46261 20.5195 8.52479C17.2239 11.0121 13.9283 11.6961 10.8192 10.5146C8.58065 9.70625 6.34209 9.51971 4.10355 10.2037C3.917 10.2659 3.73045 10.3281 3.48173 10.3902L3.35738 10.4524L3.17082 10.639C3.17082 10.7012 3.10865 10.7012 3.04647 10.7633C2.79774 11.1364 2.48682 11.4473 2.23809 11.8204L1.05664 13.6237L2.98428 12.6288C3.29519 12.6288 3.54391 12.5044 3.73045 12.4423Z" fill="#55B02E"/>
<path d="M8.82967 8.21393L9.01621 8.27611C9.82457 8.58702 11.0682 8.89793 12.6228 8.89793C14.2395 8.89793 15.794 8.52484 17.3486 7.90302L19.2762 6.97029L17.9704 6.53503C17.5973 6.41067 17.2242 6.2863 16.7889 6.22412H16.6024L16.4159 6.28629C16.2293 6.34847 16.0428 6.47285 15.8562 6.53503C13.9908 7.21903 12.1253 7.34339 10.322 6.84594C10.1355 6.78376 9.94894 6.72156 9.7624 6.65938L9.57586 6.5972L9.3893 6.65938C9.01621 6.78375 8.64313 6.90812 8.27004 7.09466L6.83984 7.71648L8.33222 8.15174C8.45659 8.08956 8.64312 8.15175 8.82967 8.21393Z" fill="#55B02E"/>
<path d="M46.0761 36.272C44.7695 36.272 43.5841 36.132 42.5201 35.852C41.4748 35.572 40.5415 35.1427 39.7201 34.564L40.4761 32.044C41.0175 32.3987 41.5775 32.688 42.1561 32.912C42.7348 33.136 43.3321 33.304 43.9481 33.416C44.5641 33.528 45.1895 33.584 45.8241 33.584C47.1308 33.584 48.1015 33.2573 48.7361 32.604C49.3895 31.9693 49.7161 31.0547 49.7161 29.86V26.472H49.9961C49.6975 27.4427 49.0908 28.2173 48.1761 28.796C47.2801 29.3747 46.2441 29.664 45.0681 29.664C43.7988 29.664 42.6881 29.384 41.7361 28.824C40.8028 28.2453 40.0748 27.424 39.5521 26.36C39.0295 25.296 38.7681 24.0453 38.7681 22.608C38.7681 21.1707 39.0295 19.9293 39.5521 18.884C40.0748 17.82 40.8028 17.008 41.7361 16.448C42.6881 15.8693 43.7988 15.58 45.0681 15.58C46.2628 15.58 47.2988 15.8693 48.1761 16.448C49.0721 17.008 49.6695 17.7733 49.9681 18.744L49.7161 18.576L49.9961 15.86H53.3841C53.3095 16.4387 53.2535 17.0267 53.2161 17.624C53.1788 18.2213 53.1601 18.8093 53.1601 19.388V29.44C53.1601 31.6613 52.5535 33.3507 51.3401 34.508C50.1455 35.684 48.3908 36.272 46.0761 36.272ZM46.0201 26.976C47.1401 26.976 48.0268 26.6027 48.6801 25.856C49.3521 25.0907 49.6881 24.008 49.6881 22.608C49.6881 21.208 49.3521 20.1347 48.6801 19.388C48.0268 18.6413 47.1401 18.268 46.0201 18.268C44.8815 18.268 43.9761 18.6413 43.3041 19.388C42.6321 20.1347 42.2961 21.208 42.2961 22.608C42.2961 24.008 42.6321 25.0907 43.3041 25.856C43.9761 26.6027 44.8815 26.976 46.0201 26.976ZM56.9141 30V19.472C56.9141 18.8747 56.8954 18.268 56.8581 17.652C56.8394 17.036 56.7928 16.4387 56.7181 15.86H60.1061L60.4981 19.724H59.9381C60.1248 18.7907 60.4328 18.016 60.8621 17.4C61.3101 16.784 61.8514 16.3267 62.4861 16.028C63.1208 15.7293 63.8114 15.58 64.5581 15.58C64.8941 15.58 65.1648 15.5987 65.3701 15.636C65.5754 15.6547 65.7808 15.7013 65.9861 15.776L65.9581 18.856C65.6034 18.7067 65.2954 18.6133 65.0341 18.576C64.7914 18.5387 64.4834 18.52 64.1101 18.52C63.3074 18.52 62.6261 18.688 62.0661 19.024C61.5248 19.36 61.1141 19.8267 60.8341 20.424C60.5728 21.0213 60.4421 21.7027 60.4421 22.468V30H56.9141ZM73.2576 30.28C72.0256 30.28 70.9429 29.9907 70.0096 29.412C69.0762 28.8147 68.3482 27.9653 67.8256 26.864C67.3029 25.7627 67.0416 24.4467 67.0416 22.916C67.0416 21.3853 67.3029 20.0787 67.8256 18.996C68.3482 17.8947 69.0762 17.0547 70.0096 16.476C70.9429 15.8787 72.0256 15.58 73.2576 15.58C74.4522 15.58 75.4976 15.8787 76.3936 16.476C77.3082 17.0547 77.9149 17.8387 78.2136 18.828H77.9056L78.2136 15.86H81.5736C81.5176 16.4387 81.4616 17.0267 81.4056 17.624C81.3682 18.2213 81.3496 18.8093 81.3496 19.388V30H77.8776L77.8496 27.088H78.1856C77.8869 28.0587 77.2802 28.8333 76.3656 29.412C75.4509 29.9907 74.4149 30.28 73.2576 30.28ZM74.2376 27.592C75.3389 27.592 76.2256 27.2093 76.8976 26.444C77.5696 25.66 77.9056 24.484 77.9056 22.916C77.9056 21.348 77.5696 20.1813 76.8976 19.416C76.2256 18.6507 75.3389 18.268 74.2376 18.268C73.1362 18.268 72.2496 18.6507 71.5776 19.416C70.9056 20.1813 70.5696 21.348 70.5696 22.916C70.5696 24.484 70.8962 25.66 71.5496 26.444C72.2216 27.2093 73.1176 27.592 74.2376 27.592ZM85.1608 30V19.388C85.1608 18.8093 85.1422 18.2213 85.1048 17.624C85.0675 17.0267 85.0115 16.4387 84.9368 15.86H88.3248L88.6048 18.66H88.2688C88.7168 17.6707 89.3795 16.9147 90.2568 16.392C91.1342 15.8507 92.1515 15.58 93.3088 15.58C94.9702 15.58 96.2208 16.0467 97.0608 16.98C97.9008 17.9133 98.3208 19.3693 98.3208 21.348V30H94.8208V21.516C94.8208 20.3773 94.5968 19.5653 94.1488 19.08C93.7195 18.576 93.0662 18.324 92.1888 18.324C91.1062 18.324 90.2475 18.66 89.6128 19.332C88.9782 20.004 88.6608 20.9 88.6608 22.02V30H85.1608ZM107.492 30.28C106.26 30.28 105.177 29.9907 104.244 29.412C103.311 28.8147 102.583 27.9653 102.06 26.864C101.537 25.7627 101.276 24.4467 101.276 22.916C101.276 21.3853 101.537 20.0787 102.06 18.996C102.583 17.8947 103.311 17.0547 104.244 16.476C105.177 15.8787 106.26 15.58 107.492 15.58C108.687 15.58 109.732 15.8787 110.628 16.476C111.543 17.0547 112.149 17.8387 112.448 18.828H112.14L112.448 15.86H115.808C115.752 16.4387 115.696 17.0267 115.64 17.624C115.603 18.2213 115.584 18.8093 115.584 19.388V30H112.112L112.084 27.088H112.42C112.121 28.0587 111.515 28.8333 110.6 29.412C109.685 29.9907 108.649 30.28 107.492 30.28ZM108.472 27.592C109.573 27.592 110.46 27.2093 111.132 26.444C111.804 25.66 112.14 24.484 112.14 22.916C112.14 21.348 111.804 20.1813 111.132 19.416C110.46 18.6507 109.573 18.268 108.472 18.268C107.371 18.268 106.484 18.6507 105.812 19.416C105.14 20.1813 104.804 21.348 104.804 22.916C104.804 24.484 105.131 25.66 105.784 26.444C106.456 27.2093 107.352 27.592 108.472 27.592ZM119.003 30V26.108H122.923V30H119.003ZM126.341 36.048V19.388C126.341 18.8093 126.322 18.2213 126.285 17.624C126.247 17.0267 126.191 16.4387 126.117 15.86H129.505L129.813 18.828H129.505C129.785 17.8387 130.373 17.0547 131.269 16.476C132.183 15.8787 133.238 15.58 134.433 15.58C135.683 15.58 136.775 15.8787 137.709 16.476C138.642 17.0547 139.37 17.8947 139.893 18.996C140.415 20.0787 140.677 21.3853 140.677 22.916C140.677 24.4467 140.415 25.7627 139.893 26.864C139.37 27.9653 138.642 28.8147 137.709 29.412C136.775 29.9907 135.683 30.28 134.433 30.28C133.257 30.28 132.221 29.9907 131.325 29.412C130.429 28.8333 129.831 28.0587 129.533 27.088H129.841V36.048H126.341ZM133.453 27.592C134.573 27.592 135.469 27.2093 136.141 26.444C136.813 25.66 137.149 24.484 137.149 22.916C137.149 21.348 136.813 20.1813 136.141 19.416C135.469 18.6507 134.573 18.268 133.453 18.268C132.351 18.268 131.465 18.6507 130.793 19.416C130.121 20.1813 129.785 21.348 129.785 22.916C129.785 24.484 130.121 25.66 130.793 26.444C131.465 27.2093 132.351 27.592 133.453 27.592ZM143.676 30V19.472C143.676 18.8747 143.657 18.268 143.62 17.652C143.601 17.036 143.554 16.4387 143.48 15.86H146.868L147.26 19.724H146.7C146.886 18.7907 147.194 18.016 147.624 17.4C148.072 16.784 148.613 16.3267 149.248 16.028C149.882 15.7293 150.573 15.58 151.32 15.58C151.656 15.58 151.926 15.5987 152.132 15.636C152.337 15.6547 152.542 15.7013 152.748 15.776L152.72 18.856C152.365 18.7067 152.057 18.6133 151.796 18.576C151.553 18.5387 151.245 18.52 150.872 18.52C150.069 18.52 149.388 18.688 148.828 19.024C148.286 19.36 147.876 19.8267 147.596 20.424C147.334 21.0213 147.204 21.7027 147.204 22.468V30H143.676ZM160.861 30.28C159.405 30.28 158.145 29.9813 157.081 29.384C156.017 28.7867 155.187 27.9373 154.589 26.836C154.011 25.7347 153.721 24.428 153.721 22.916C153.721 21.404 154.011 20.1067 154.589 19.024C155.187 17.9227 156.017 17.0733 157.081 16.476C158.145 15.8787 159.405 15.58 160.861 15.58C162.317 15.58 163.577 15.8787 164.641 16.476C165.724 17.0733 166.555 17.9227 167.133 19.024C167.731 20.1067 168.029 21.404 168.029 22.916C168.029 24.428 167.731 25.7347 167.133 26.836C166.555 27.9373 165.724 28.7867 164.641 29.384C163.577 29.9813 162.317 30.28 160.861 30.28ZM160.861 27.592C161.963 27.592 162.84 27.2093 163.493 26.444C164.147 25.66 164.473 24.484 164.473 22.916C164.473 21.348 164.147 20.1813 163.493 19.416C162.84 18.6507 161.963 18.268 160.861 18.268C159.76 18.268 158.883 18.6507 158.229 19.416C157.576 20.1813 157.249 21.348 157.249 22.916C157.249 24.484 157.576 25.66 158.229 26.444C158.883 27.2093 159.76 27.592 160.861 27.592Z" fill="white"/>
</svg>
